<svg width="53" height="50" viewBox="0 0 53 50" fill="none" xmlns="http://www.w3.org/2000/svg">
<path d="M26.2705 11.941C18.8291 11.9191 12.7822 17.541 12.7588 24.4863C12.7354 31.4316 18.7588 37.0754 26.2002 37.0973C33.6416 37.1191 39.6885 31.4973 39.7119 24.552C39.7354 17.6066 33.7119 11.9629 26.2705 11.941ZM26.2002 16.3598C31.0283 16.3379 34.9541 19.9801 34.9775 24.4863C35.001 28.9926 31.0986 32.6566 26.2705 32.6785C21.4424 32.7004 17.5166 29.0582 17.4932 24.552C17.4697 20.0457 21.3721 16.3816 26.2002 16.3598ZM37.1455 11.427C37.1455 9.8082 38.5518 8.4957 40.2861 8.4957C42.0205 8.4957 43.4268 9.8082 43.4268 11.427C43.4268 13.0457 42.0205 14.3582 40.2861 14.3582C38.5518 14.3582 37.1455 13.0457 37.1455 11.427ZM52.3447 14.402C52.1455 10.4754 51.1846 6.99727 48.1025 4.13164C45.0322 1.26602 41.3057 0.369141 37.0986 0.172266C32.7627 -0.0574219 19.7666 -0.0574219 15.4307 0.172266C11.2354 0.358203 7.50879 1.25508 4.42676 4.1207C1.34473 6.98633 0.395508 10.4645 0.18457 14.391C-0.0615234 18.4379 -0.0615234 30.5676 0.18457 34.6145C0.383789 38.541 1.34473 42.0191 4.42676 44.8848C7.50879 47.7504 11.2236 48.6473 15.4307 48.8441C19.7666 49.0738 32.7627 49.0738 37.0986 48.8441C41.3057 48.6582 45.0322 47.7613 48.1025 44.8848C51.1729 42.0191 52.1338 38.541 52.3447 34.6145C52.5908 30.5676 52.5908 18.4488 52.3447 14.402ZM46.7432 38.9566C45.8291 41.1004 44.0596 42.752 41.751 43.616C38.2939 44.8957 30.0908 44.6004 26.2705 44.6004C22.4502 44.6004 14.2354 44.8848 10.79 43.616C8.49316 42.7629 6.72363 41.1113 5.79785 38.9566C4.42676 35.7301 4.74317 28.0738 4.74317 24.5082C4.74317 20.9426 4.43848 13.2754 5.79785 10.0598C6.71192 7.91602 8.48145 6.26445 10.79 5.40039C14.2471 4.1207 22.4502 4.41602 26.2705 4.41602C30.0908 4.41602 38.3057 4.13164 41.751 5.40039C44.0479 6.25352 45.8174 7.90508 46.7432 10.0598C48.1143 13.2863 47.7979 20.9426 47.7979 24.5082C47.7979 28.0738 48.1143 35.741 46.7432 38.9566Z" fill="#6F22D4"/>
</svg>
